# xmcd CD database file
#
# Track frame offsets:
#	300
#	18095
#	37177
#	56596
#	72461
#	89576
#	104277
#	122296
#	137272
#	153584
#	172658
#	188428
#	205611
#	225600
#	243590
#	261993
#	281213
#	299013
#
# Disc length: 4197 seconds
#
# Revision: 1
# Processed by: cddbd v1.5.2PL0 Copyright (c) Steve Scherf et al.
# Submitted via: CDex 1.51
#
DISCID=00106112
DTITLE=Various Artist - SF-314
DYEAR=1900
DGENRE=Blues
TTITLE0=Lady Gaga - Teeth
TTITLE1=Calvin Harris Ft Ne-Yo - Let's Go
TTITLE2=Rihanna - Where Have You Been
TTITLE3=Madonna - Girl Gone Wild
TTITLE4=Nicky Minaj - Sharships (clean)
TTITLE5=Marcus Collins - Seven Nation Army
TTITLE6=Cher Lloyd Ft Astro - Want U Back
TTITLE7=Olly Murs - Oh My Goodness
TTITLE8=Arctic Monkeys - R U Mine
TTITLE9=Will Young - Losing Myself
TTITLE10=Goyte - Eyes Wide Open
TTITLE11=B.O.B - So Good
TTITLE12=Fun Ft Janelle Monae - We Are Young
TTITLE13=Kelly Clarkson - Dark Side
TTITLE14=Alexandra Burke Ft Erick Morillo - Elephant
TTITLE15=Jason Maraz - I Won't Give Up
TTITLE16=Gym Class Heroes Ft Neon Hitch - Ass Back Home (clean)-(get youself back home)
TTITLE17=Conor Maynard - Can't Say No
EXTD=
EXTT0=
EXTT1=
EXTT2=
EXTT3=
EXTT4=
EXTT5=
EXTT6=
EXTT7=
EXTT8=
EXTT9=
EXTT10=
EXTT11=
EXTT12=
EXTT13=
EXTT14=
EXTT15=
EXTT16=
EXTT17=
PLAYORDER=
